<svg id="Layer_1" data-name="Layer 1" xmlns="http://www.w3.org/2000/svg" viewBox="0 0 84.41 49.09"><defs><style>.cls-1{fill:#00aeef;}.cls-2{fill:#d22026;}.cls-3{fill:#eae724;}.cls-4{fill:#6abd45;}</style></defs><path class="cls-1" d="M282.59,324.81a34.73,34.73,0,0,0-9.08-1H258.8v46.76h11.06V352.65h.83a37.47,37.47,0,0,1-.33-5.1c0-.67,0-1.34.05-2l0-.5h-.58V331.53h3.68c.47,0,.92,0,1.35.05h0a19.59,19.59,0,0,1,7.35-6.27l.81-.37Zm.52,45.69v0h.06Z" transform="translate(-258.8 -323.1)"/><path class="cls-1" d="M283.39,350.79l4.56,7.34-.93,3.08h0l-.19.61c-3.11-2.31-5-6.92-5-14.28,0-5.56,1.13-9.55,3-12.18a9,9,0,0,1,6.09-3.94l.56-.08a14.87,14.87,0,0,1,1.37,6.62C292.77,344.68,288.62,348.74,283.39,350.79Z" transform="translate(-258.8 -323.1)"/><path class="cls-2" d="M274.9,331.58l-.35.51a26.2,26.2,0,0,0-4.11,13H274c4.79,0,7.39-2.13,7.39-7.09C281.37,333.9,279.17,331.91,274.9,331.58Zm7.72,38.05-9.62-17h-2.31c0,.17,0,.34.07.51,1.27,8.42,5.48,14.15,11.52,17,.28.13.55.25.83.36Zm9.6-46.53a22.57,22.57,0,0,0-9.16,1.84c3.83,1.14,6.55,3.11,8.11,6l.23.43a9.82,9.82,0,0,1,1.09-.06,13.9,13.9,0,0,1,3.46.43l2.41-8h.15A27.24,27.24,0,0,0,292.22,323.1Zm11.63,37.69H301.1a16.48,16.48,0,0,1-3.48,1.95l-2,8.23H284.34l.21.07a24.05,24.05,0,0,0,7.53,1.14,21.55,21.55,0,0,0,15.76-6.3Z" transform="translate(-258.8 -323.1)"/><path class="cls-3" d="M314.37,332.28h-9v-1.82l-3.55,4.28a15.13,15.13,0,0,0-5.85-3l-8,26.41,3,4.82h0l.38.61a12.3,12.3,0,0,0,1.37.08,13.14,13.14,0,0,0,4.93-.91l.47-1.95h3c.59-.43,1.16-.88,1.71-1.32l1,1.32h7.94L314.25,371h4.23V345.82Zm-14.52,20.4,5.06-20.87L310,352.68Zm-1.34-28.92a20,20,0,0,1,6.84,3v-3Z" transform="translate(-258.8 -323.1)"/><path class="cls-4" d="M311.79,323.77l2.57,8.48v0h4.11v13.54L326.1,371h3.5l-.06-38.69h12.52l1.14-8.51Z" transform="translate(-258.8 -323.1)"/></svg>