<?xml version="1.0" encoding="UTF-8" standalone="no"?>
<!-- Created with Inkscape (http://www.inkscape.org/) -->

<svg
   xmlns:dc="http://purl.org/dc/elements/1.1/"
   xmlns:cc="http://creativecommons.org/ns#"
   xmlns:rdf="http://www.w3.org/1999/02/22-rdf-syntax-ns#"
   xmlns:svg="http://www.w3.org/2000/svg"
   xmlns="http://www.w3.org/2000/svg"
   xmlns:xlink="http://www.w3.org/1999/xlink"
   xmlns:sodipodi="http://sodipodi.sourceforge.net/DTD/sodipodi-0.dtd"
   xmlns:inkscape="http://www.inkscape.org/namespaces/inkscape"
   viewBox="0 0 250 250"
    style="enable-background:new 0 0 250 250;"
   version="1.1"
   id="svg2618"
   inkscape:version="0.92.4 (5da689c313, 2019-01-14)"
   sodipodi:docname="redevrails.svg">
  <defs
     id="defs2612">
    <defs
       id="defs6803">
      <style>
	.st1{fill:none;stroke:url(#radialGradient5027);}
   .st2{fill:none;stroke:url(#linearGradient5076);}
			.st1, .st2{
         stroke-width:7;
				stroke-dasharray: 1100;
				stroke-dashoffset: 0;
				-webkit-animation: dash 10s alternate infinite;
				-o-animation: dash 10s alternate infinite;
				-moz-animation: dash 10s alternate infinite;
				animation: dash 10s alternate infinite;
			}
			@-webkit-keyframes dash {
				from {
					stroke-dashoffset: 1100;
				}
				to{
					stroke-dashoffset: 0;
               
				}
			}
		</style>
    </defs>
    <linearGradient
       inkscape:collect="always"
       xlink:href="#linearGradient5082"
       id="linearGradient5076"
       gradientUnits="userSpaceOnUse"
       x1="-1204.8481"
       y1="-408.34918"
       x2="-1083.6583"
       y2="-515.255"
       gradientTransform="matrix(1.5936708,0,0,1.5936708,1985.7578,807.93112)" />
    <linearGradient
       id="linearGradient5082"
       inkscape:collect="always">
      <stop
         id="stop5078"
         offset="0"
         style="stop-color:#33de3a;stop-opacity:0" />
      <stop
         id="stop5080"
         offset="1"
         style="stop-color:#3621b9;stop-opacity:1" />
    </linearGradient>
    <radialGradient
       inkscape:collect="always"
       xlink:href="#linearGradient4993"
       id="radialGradient5027"
       cx="-1337.4521"
       cy="-244.31471"
       fx="-1337.4521"
       fy="-244.31471"
       r="97.090096"
       gradientTransform="matrix(2.7898072,-1.7297145,2.1073322,3.3985253,4274.7971,-1228.58)"
       gradientUnits="userSpaceOnUse" />
    <linearGradient
       inkscape:collect="always"
       id="linearGradient4993">
      <stop
         style="stop-color:#33de3a;stop-opacity:1"
         offset="0"
         id="stop4989" />
      <stop
         style="stop-color:#43b3df;stop-opacity:1"
         offset="1"
         id="stop4991" />
    </linearGradient>
  </defs>
  <metadata
     id="metadata2615">
    <rdf:RDF>
      <cc:Work
         rdf:about="">
        <dc:format>image/svg+xml</dc:format>
        <dc:type
           rdf:resource="http://purl.org/dc/dcmitype/StillImage" />
        <dc:title />
      </cc:Work>
    </rdf:RDF>
  </metadata>
  <g
     inkscape:label="Layer 1"
     inkscape:groupmode="layer"
     id="layer1">
    <path
       class="st1"
       style="opacity:1;"
       d="m 46.721021,176.7114 c -2.572802,-0.91899 -4.293509,-2.57029 -5.575531,-5.35074 l -0.650198,-1.41011 V 129.38653 51.822911 l 0.755135,-1.61056 c 0.96153,-2.051016 2.712317,-3.801778 4.763331,-4.763341 l 1.61058,-0.7551 h 77.569542 77.56958 l 1.89441,0.932621 c 3.38038,1.66415 5.21748,4.59714 5.22079,8.33509 0,4.24191 2.94969,0.97189 -36.0311,39.99373 l -34.96657,35.003439 35.10013,35.146 c 20.90742,20.93476 21.89853,21.94195 21.9043,26.20591 0.009,3.74069 -1.81696,6.6818 -5.1583,8.32674 -1.68753,0.83078 -2.17922,0.94012 -4.19862,0.93375 -4.39879,-0.0146 -6.16901,-2.39243 -27.9815,-24.17595 l -37.07543,-37.02618 h -21.01526 c -20.795044,0 -21.032394,-0.005 -22.651114,-0.61209 -6.93423,-2.59439 -8.17652,-11.97036 -2.16434,-16.33416 2.6218,-1.90297 2.2347,-1.87433 25.327644,-1.87433 h 20.79854 l 27.87394,-27.874939 c 15.33059,-15.33124 27.87385,-27.97127 27.87385,-28.08899 0,-0.11763 -26.5948,-0.18154 -59.09945,-0.14203 l -59.099453,0.0719 -0.142575,72.002979 -0.142756,35.00342 -0.697904,1.41835 c -0.898328,1.8255 -2.632764,3.54897 -4.434937,4.40688 -1.952012,0.92925 -5.143165,1.09165 -7.176825,0.36528 z"
       id="path4979"
       inkscape:connector-curvature="0"
       sodipodi:nodetypes="ccccccccccscscscccscscssccssccccccc" />
    <path
       class="st2"
       style="opacity:0.61000001;"
       d="m 46.721021,186.28806 c -2.572802,-0.91897 -4.293509,-2.57029 -5.575531,-5.35074 l -0.650198,-1.41008 V 129.38653 51.822911 l 0.755135,-1.61056 c 0.96153,-2.051016 2.712317,-3.801778 4.763331,-4.763341 l 1.61058,-0.7551 h 77.569542 77.56958 l 1.89441,0.932621 c 3.38038,1.66415 5.21748,4.59714 5.22079,8.33509 0,4.24191 2.94969,0.97189 -36.0311,39.99373 l -34.96657,35.003439 35.10013,35.146 c 15.61872,15.63911 21.99935,21.84115 22.00512,26.10509 0.009,3.74069 -1.81696,6.6818 -5.1583,8.32674 -1.68751,0.83077 -2.17922,0.94012 -4.19862,0.93376 -4.39879,-0.0146 -9.954,-5.97093 -28.08232,-24.07514 l -37.07543,-37.02618 h -21.01526 c -20.795044,0 -21.032394,-0.005 -22.651114,-0.61209 -6.93423,-2.59439 -8.17652,-11.97036 -2.16434,-16.33416 2.6218,-1.90297 2.2347,-1.87433 25.327644,-1.87433 h 20.79854 l 27.87394,-27.874939 c 15.33059,-15.33124 27.87385,-27.97127 27.87385,-28.08899 0,-0.11763 -26.5948,-0.18154 -59.09945,-0.14203 l -59.099453,0.0719 -0.142575,72.002979 -0.142756,44.58008 -0.697904,1.41837 c -0.898328,1.82548 -2.632764,3.54896 -4.434937,4.40686 -1.952012,0.92927 -5.143165,1.09167 -7.176825,0.36531 z"
       id="path4979-6"
       inkscape:connector-curvature="0"
       sodipodi:nodetypes="ccccccccccscscscccscscssccssccccccc" />
    <circle
       style="opacity:1;fill:#35da4a;fill-opacity:1;stroke:none;stroke-width:26.38084221;stroke-linecap:round;stroke-linejoin:round;stroke-miterlimit:4;stroke-dasharray:none;stroke-dashoffset:0;stroke-opacity:1;paint-order:markers stroke fill"
       id="path5084"
       cx="50.151299"
       cy="191.73369"
       r="9.6598053" />
  </g>
</svg>
